<svg xmlns="http://www.w3.org/2000/svg" width="611" height="614" viewBox="0 0 611 614"><path d="M565.369 231.426l5.362 20.955-5.362 20.962V383.59L560 404.545l5.369 48.66V468C593.643 421.12 610 365.782 610 306.498c0-59.283-16.357-114.62-44.631-161.498v86.426zm-327.92 347.613V453.388l-5.55-48.622 5.55-20.939V273.665L243 252.724l-5.55-20.942V76.439l-1.85-20.945V34.558l-3.702-20.946L231.57 10a304.557 304.557 0 0 0-40.862 13.253l2 11.305v20.936l1.836 20.945v155.342l5.558 20.942-5.558 20.943v110.161L189 404.767l5.544 48.622v138.489A305.937 305.937 0 0 0 237.45 605v-25.961zm91.104.343V453.666l-5.448-48.648 5.448-20.95V273.85L334 252.896l-5.447-20.953V76.521l-1.815-20.956V34.618l-3.633-20.956-1.052-12.129A299.45 299.45 0 0 0 304.428 1C296.2 1 288.057 1.347 280 2.004l1.014 11.658 3.626 20.956v20.947l1.82 20.956v155.422l5.442 20.953-5.441 20.954v110.218l-5.447 20.95 5.447 48.648v158.771c5.94.357 11.934.563 17.967.563 8.117 0 16.168-.34 24.125-.978v-32.64zm93.94-36.411v-88.12l-5.506-48.636 5.507-20.947v-110.19L428 254.13l-5.506-20.945V77.801l-1.835-20.948V35.912l-2.091-11.936A300.932 300.932 0 0 0 374 10l.433 4.96 3.665 20.952v20.94l1.84 20.949v155.384l5.5 20.945-5.5 20.948v110.19l-5.505 20.947 5.506 48.635V605a301.07 301.07 0 0 0 42.555-14.153v-47.876zm91.956-89.633l-5.544-48.668 5.544-20.958V273.445L520 252.483l-5.55-20.959V83.983A307.712 307.712 0 0 0 469.707 49v6.073l1.85 20.962v155.489l5.544 20.959-5.545 20.962v110.267L466 404.67l5.557 48.668V563a307.399 307.399 0 0 0 42.892-33.763v-75.899zm-369 21.723V454.05l-5.55-48.799 5.55-21.018V273.671L151 252.652l-5.55-21.015V75.73l-1.85-21.02V47a306.798 306.798 0 0 0-41.043 30.94v153.697l5.543 21.015-5.543 21.019v110.561L97 405.25l5.557 48.8v81.858A307.772 307.772 0 0 0 145.45 568v-92.939zM52.543 452.62l-5.458-48.466 5.458-20.871v-109.81L58 252.597l-5.458-20.871V136C20.002 184.664 1 243.336 1 306.498 1 369.658 20.001 428.336 52.542 477v-24.381z" fill="none" stroke="#FFF" stroke-width="2" opacity=".394"/></svg>